<svg width="80" height="80" viewBox="0 0 80 80" fill="none" xmlns="http://www.w3.org/2000/svg">
<g opacity="0.7">
<path d="M37.0336 0C39.0065 0 40.9951 0 42.9681 0C43.1717 0.0469519 43.3752 0.109554 43.5788 0.125205C49.6698 0.657327 55.3695 2.45715 60.568 5.66553C70.4328 11.7223 76.6335 20.4241 79.1858 31.7082C79.5772 33.4141 79.7025 35.1513 80 36.8729C80 38.9544 80 41.036 80 43.1175C79.953 43.3523 79.8904 43.5714 79.8591 43.8061C78.7943 53.9947 74.5509 62.6339 66.9723 69.5201C58.3759 77.3298 48.198 80.7886 36.6108 79.8496C26.3859 79.0201 17.7269 74.7788 10.7589 67.2664C2.55399 58.3925 -0.953473 47.8284 0.220901 35.84C1.20737 25.8705 5.51341 17.4192 12.8885 10.5955C18.87 5.05516 25.9005 1.67462 33.9489 0.438218C34.9824 0.266061 36.0158 0.140856 37.0336 0ZM12.45 37.4676C12.4814 47.3275 15.0023 53.7443 20.1226 59.0186C26.5895 65.6857 34.5596 68.3463 43.7667 67.2664C47.4777 66.8282 50.9538 65.5762 54.1481 63.6199C55.2442 62.9469 55.6044 61.8044 55.1659 60.7245C54.7588 59.6915 53.741 59.1907 52.5353 59.3942C52.1595 59.4568 51.862 59.6446 51.5332 59.8324C47.3054 62.2113 42.8115 63.2286 37.9574 62.8373C25.2742 61.82 15.613 49.9412 17.2258 37.2798C18.8386 24.6498 30.0656 15.7915 42.7019 17.2001C57.4834 18.8434 66.8627 34.4158 61.4136 48.2353C60.7873 49.816 59.9574 51.2872 59.0805 52.7427C58.5638 53.5878 58.5794 54.4955 59.1275 55.325C59.6599 56.1388 60.4741 56.3267 61.3979 56.2171C62.2278 56.1232 62.7289 55.5598 63.136 54.9024C66.8627 49.1274 68.2406 42.7889 67.2541 36.0278C65.0933 21.191 51.6115 10.9085 36.7361 12.6457C22.581 14.3047 12.2778 26.5435 12.45 37.4676ZM52.551 34.3688C52.5353 30.91 51.2044 28.6407 48.746 27.0287C47.3994 26.1366 45.8805 25.8079 44.299 25.7923C43.6727 25.7923 43.3909 25.5418 43.4222 24.9158C43.4378 24.5089 43.4378 24.0863 43.3752 23.6638C43.1873 22.2865 42.2322 21.4883 40.9325 21.5509C39.7112 21.6135 38.85 22.5526 38.7873 23.8985C38.6934 25.9331 38.6621 25.9488 36.6421 25.7766C36.1567 25.7297 35.9375 25.5262 35.9375 25.0567C35.9375 24.5872 35.9532 24.1176 35.8905 23.6481C35.7183 22.3335 34.7631 21.504 33.5105 21.5509C32.2578 21.5979 31.3653 22.49 31.3027 23.8203C31.287 24.102 31.3027 24.3993 31.287 24.6811C31.2713 25.6984 31.2087 25.761 30.2379 25.7766C29.8934 25.7766 29.5646 25.761 29.2201 25.7923C27.9831 25.9018 27.1062 26.7782 27.0592 27.952C26.9966 29.1884 27.7169 30.1118 28.9382 30.3466C29.314 30.4248 29.7212 30.4092 30.097 30.4248C31.24 30.4405 31.2713 30.4718 31.2713 31.6299C31.2713 36.3408 31.2713 41.0516 31.2713 45.7625C31.2713 46.7485 31.2557 47.7345 31.2713 48.7361C31.2713 49.2995 31.0365 49.5499 30.4728 49.5343C30.0343 49.5186 29.5802 49.5186 29.1418 49.5656C27.8265 49.7221 27.0123 50.6611 27.0436 51.9288C27.0749 53.1809 27.9831 54.073 29.2984 54.1669C29.7212 54.1982 30.1283 54.1825 30.5511 54.1825C31.0365 54.1825 31.2713 54.4016 31.2713 54.8868C31.2713 55.3563 31.2557 55.8258 31.3183 56.2954C31.4592 57.4222 32.3518 58.236 33.4792 58.3143C34.5752 58.3769 35.5617 57.657 35.8279 56.5301C35.9219 56.1076 35.9532 55.6537 35.9375 55.2155C35.8905 54.4329 36.188 54.1512 36.971 54.1669C38.9909 54.1982 38.7717 54.0886 38.803 55.9041C38.8343 57.3126 39.6955 58.2204 40.9951 58.2673C42.3418 58.3143 43.2813 57.4692 43.4222 56.0449C43.4535 55.7632 43.4692 55.4659 43.4378 55.1842C43.3596 54.386 43.7354 54.1199 44.4869 54.1669C45.2385 54.2138 45.9901 54.1825 46.7574 54.1669C50.4528 54.1043 53.6157 51.8036 54.7431 48.3761C55.8705 44.9486 54.7275 41.302 51.7837 39.0483C51.267 38.6571 51.2357 38.3597 51.5489 37.8276C52.2378 36.6381 52.598 35.3078 52.551 34.3688Z" fill="url(#paint0_linear_4_944)"/>
<path d="M35.9219 39.9874C35.9219 37.1546 35.9375 34.3219 35.9062 31.4734C35.8905 30.7066 36.1567 30.4092 36.9396 30.4248C39.445 30.4561 41.9346 30.4248 44.44 30.4405C46.4599 30.4561 47.9474 31.9273 47.9631 33.868C47.9788 35.7461 46.4286 37.2955 44.4713 37.3424C43.4378 37.3737 42.3887 37.3424 41.3553 37.3581C39.8991 37.3894 38.9126 38.3128 38.9126 39.6431C38.9126 41.0047 39.8364 41.9437 41.3083 41.975C43.0464 42.022 44.8001 41.975 46.5382 41.9907C48.8869 42.0063 50.5154 43.587 50.4997 45.7938C50.4841 47.9692 48.8556 49.5186 46.5382 49.5186C43.3596 49.5343 40.1809 49.5186 37.0179 49.5186C35.9845 49.5186 35.9219 49.456 35.9219 48.3918C35.9219 45.606 35.9219 42.7888 35.9219 39.9874Z" fill="url(#paint1_linear_4_944)"/>
</g>
<defs>
<linearGradient id="paint0_linear_4_944" x1="0" y1="40" x2="80" y2="40" gradientUnits="userSpaceOnUse">
<stop stop-color="#FCEABB"/>
<stop offset="1" stop-color="#F8B500"/>
</linearGradient>
<linearGradient id="paint1_linear_4_944" x1="0" y1="40" x2="80" y2="40" gradientUnits="userSpaceOnUse">
<stop stop-color="#FCEABB"/>
<stop offset="1" stop-color="#F8B500"/>
</linearGradient>
</defs>
</svg>
