<svg width="80" height="80" viewBox="0 0 80 80" fill="none" xmlns="http://www.w3.org/2000/svg">
<g opacity="0.7">
<path d="M60.4444 80C40.3019 80 20.1593 80 0.033543 80C0.0167715 79.7514 0 79.4889 0 79.2403C0 53.2044 0 27.1685 0 1.1326C0 0 0 0 1.39203 0C12.1593 0 22.9266 0 33.6939 0C42.0629 0 50.4319 0 58.8008 0C60.478 0 62.0713 0.248619 63.5472 0.939226C67.0356 2.59668 68.6792 5.09668 68.6792 8.38398C68.6625 29.4751 68.6792 50.5801 68.6792 71.6712C68.6792 71.8784 68.6792 72.0856 68.6625 72.2928C68.5451 74.5304 67.522 76.4364 65.4927 77.9558C64.0503 79.0331 62.3396 79.6823 60.4444 80ZM11.5891 28.1906C11.5723 38.4807 21.7526 46.9889 34.1467 47.0166C46.7254 47.0442 57.0566 38.6326 57.0901 28.3425C57.1069 17.9696 46.9602 9.55801 34.3815 9.53038C21.8029 9.51657 11.6059 17.8591 11.5891 28.1906ZM34.4319 54.2127C30.021 54.2127 25.6268 54.2265 21.2159 54.1989C20.4277 54.1989 20.0922 54.4199 20.1258 55.0829C20.1761 55.953 20.1258 56.8232 20.1426 57.7072C20.1426 58.7155 20.1761 58.7569 21.4172 58.7569C27.086 58.7569 32.7379 58.7569 38.4067 58.7569C41.4423 58.7569 44.4948 58.7431 47.5304 58.7707C48.2683 58.7707 48.6038 58.5635 48.5702 57.9282C48.5199 57.0304 48.5702 56.1326 48.5535 55.2348C48.5535 54.2679 48.4864 54.2127 47.3291 54.2127C43.0189 54.2127 38.7254 54.2127 34.4319 54.2127ZM34.2474 68.163C36.7631 68.163 39.2621 68.1492 41.7778 68.1768C42.5828 68.1906 42.8679 67.9282 42.8344 67.279C42.7841 66.2983 42.8008 65.3038 42.8344 64.3094C42.8511 63.8121 42.5828 63.605 41.979 63.605C36.8805 63.6188 31.7652 63.6188 26.6667 63.605C26.0629 63.605 25.8113 63.8121 25.8113 64.3094C25.8281 65.3038 25.8449 66.2845 25.7945 67.279C25.761 67.942 26.0797 68.1768 26.8679 68.163C29.3501 68.1491 31.7987 68.163 34.2474 68.163Z" fill="url(#paint0_linear_4_950)"/>
<path d="M70.9937 80C71.1279 79.779 71.2453 79.5442 71.413 79.337C73.3249 77.0442 74.1971 74.5304 74.1803 71.7541C74.1635 50.5939 74.1635 29.4475 74.1803 8.28729C74.1803 5.53867 73.3417 3.02486 71.4465 0.759668C71.2956 0.58011 70.9937 0.38674 71.1782 0.151934C71.3627 -0.0690608 71.6981 0.0552486 71.9497 0.0966851C75.9413 0.732044 78.4906 2.67956 79.6981 5.85635C79.8155 6.16022 79.8994 6.4779 80 6.78177C80 28.9365 80 51.0912 80 73.2458C79.5472 75.0276 78.6415 76.6022 76.9979 77.8729C75.5556 78.9917 73.8616 79.6409 71.9665 80C71.6646 80 71.3291 80 70.9937 80Z" fill="url(#paint1_linear_4_950)"/>
<path d="M34.2977 30.5249C35.5556 30.5249 36.7966 30.5387 38.0545 30.5249C38.826 30.511 39.0943 30.8011 39.0273 31.4088C38.6918 34.268 38.1384 37.0994 36.7966 39.779C36.478 40.4144 36.0419 41.0083 35.5556 41.5746C34.6667 42.6243 33.9455 42.5967 33.0734 41.5608C31.7652 40 31.0776 38.232 30.5409 36.4227C30.0545 34.8204 29.8533 33.1768 29.652 31.5331C29.5514 30.663 29.7023 30.5387 30.7925 30.5387C31.9665 30.511 33.1237 30.5249 34.2977 30.5249Z" fill="url(#paint2_linear_4_950)"/>
<path d="M34.3312 25.9668C33.0734 25.9668 31.8155 25.953 30.5744 25.9668C29.9036 25.9807 29.5849 25.7597 29.652 25.1934C29.9706 22.2099 30.5073 19.2679 32 16.5055C32.4025 15.7735 32.9224 15.0967 33.5933 14.5028C34.0964 14.0608 34.5996 14.0746 35.1027 14.5028C35.8742 15.1796 36.4109 15.9807 36.847 16.837C38.2054 19.4889 38.7086 22.3066 39.044 25.1381C39.1111 25.732 38.8428 25.9807 38.1048 25.9668C36.8302 25.953 35.5723 25.9668 34.3312 25.9668Z" fill="url(#paint3_linear_4_950)"/>
<path d="M51.1698 31.2016C50.8512 32.5691 50.1635 33.9779 49.2411 35.3039C47.782 37.4033 45.8029 39.0884 43.304 40.3453C43.086 40.4558 42.8512 40.7182 42.566 40.5387C42.3312 40.3867 42.566 40.1519 42.6331 39.9724C43.6562 37.2099 44.3606 34.4061 44.5283 31.5193C44.5786 30.6492 44.696 30.5387 45.7694 30.5387C47.2956 30.5249 48.8386 30.5387 50.3648 30.5387C50.8008 30.5249 51.2705 30.5387 51.1698 31.2016Z" fill="url(#paint4_linear_4_950)"/>
<path d="M20.7966 30.5249C21.501 30.5249 22.1887 30.5249 22.8931 30.5249C23.9497 30.5387 24.0839 30.6353 24.1342 31.5193C24.2683 34.2265 24.9392 36.837 25.8113 39.4337C25.9287 39.7928 26.3983 40.29 26.0629 40.4972C25.6436 40.7458 25.1908 40.2486 24.805 40.0276C21.0482 37.9558 18.6667 35.0829 17.5933 31.4779C17.3417 30.663 17.4927 30.5387 18.4822 30.5249C19.2369 30.511 20.0084 30.5249 20.7966 30.5249Z" fill="url(#paint5_linear_4_950)"/>
<path d="M20.6792 25.9668C19.9078 25.9668 19.1195 25.9806 18.348 25.9668C17.4927 25.953 17.3585 25.8149 17.543 25.1243C18.1635 22.8729 19.4046 20.8563 21.2159 19.0884C22.3899 17.942 23.782 16.9889 25.3082 16.1878C25.5262 16.0773 25.7778 15.8287 26.0461 15.9945C26.2977 16.1464 26.0629 16.3812 26.0126 16.5608C25.0566 19.2956 24.2851 22.058 24.1509 24.9309C24.1006 25.884 23.9665 25.9668 22.7925 25.9668C22.0713 25.9806 21.3669 25.9668 20.6792 25.9668Z" fill="url(#paint6_linear_4_950)"/>
<path d="M47.9497 25.9668C47.1111 25.9668 46.2726 25.953 45.4508 25.9668C44.8638 25.9807 44.5786 25.7458 44.5619 25.2624C44.4109 22.2237 43.6562 19.268 42.5661 16.3536C42.5157 16.2017 42.3816 16.0359 42.5828 15.9116C42.7505 15.8149 42.9015 15.9392 43.0357 16.0083C45.9874 17.5138 48.3522 19.4889 49.8113 22.1133C50.3648 23.1077 50.8847 24.1298 51.1531 25.221C51.2705 25.732 51.086 25.9668 50.4487 25.953C49.6101 25.9668 48.7715 25.9668 47.9497 25.9668Z" fill="url(#paint7_linear_4_950)"/>
</g>
<defs>
<linearGradient id="paint0_linear_4_950" x1="0" y1="40" x2="80" y2="40" gradientUnits="userSpaceOnUse">
<stop stop-color="#FCEABB"/>
<stop offset="1" stop-color="#F8B500"/>
</linearGradient>
<linearGradient id="paint1_linear_4_950" x1="0" y1="40" x2="80" y2="40" gradientUnits="userSpaceOnUse">
<stop stop-color="#FCEABB"/>
<stop offset="1" stop-color="#F8B500"/>
</linearGradient>
<linearGradient id="paint2_linear_4_950" x1="0" y1="40" x2="80" y2="40" gradientUnits="userSpaceOnUse">
<stop stop-color="#FCEABB"/>
<stop offset="1" stop-color="#F8B500"/>
</linearGradient>
<linearGradient id="paint3_linear_4_950" x1="0" y1="40" x2="80" y2="40" gradientUnits="userSpaceOnUse">
<stop stop-color="#FCEABB"/>
<stop offset="1" stop-color="#F8B500"/>
</linearGradient>
<linearGradient id="paint4_linear_4_950" x1="0" y1="40" x2="80" y2="40" gradientUnits="userSpaceOnUse">
<stop stop-color="#FCEABB"/>
<stop offset="1" stop-color="#F8B500"/>
</linearGradient>
<linearGradient id="paint5_linear_4_950" x1="0" y1="40" x2="80" y2="40" gradientUnits="userSpaceOnUse">
<stop stop-color="#FCEABB"/>
<stop offset="1" stop-color="#F8B500"/>
</linearGradient>
<linearGradient id="paint6_linear_4_950" x1="0" y1="40" x2="80" y2="40" gradientUnits="userSpaceOnUse">
<stop stop-color="#FCEABB"/>
<stop offset="1" stop-color="#F8B500"/>
</linearGradient>
<linearGradient id="paint7_linear_4_950" x1="0" y1="40" x2="80" y2="40" gradientUnits="userSpaceOnUse">
<stop stop-color="#FCEABB"/>
<stop offset="1" stop-color="#F8B500"/>
</linearGradient>
</defs>
</svg>
