<svg width="80" height="80" viewBox="0 0 80 80" fill="none" xmlns="http://www.w3.org/2000/svg">
<g opacity="0.7" clip-path="url(#clip0_4_915)">
<path d="M12.5844 80C11.1704 79.489 10.6677 78.5497 10.6677 77.2238C10.6991 61.2569 10.6834 45.2901 10.6834 29.3094C10.6834 28.1768 10.6834 28.1768 9.41082 28.1768C7.28984 28.1768 5.18458 28.1768 3.0636 28.1768C1.52393 28.1768 0.596989 27.721 0.204216 26.6713C-0.235689 25.5525 0.109951 24.5995 1.13116 23.826C3.11074 22.3066 5.0746 20.7597 7.05418 19.2265C9.42653 17.3757 11.8303 15.5249 14.2184 13.674C17.062 11.4779 19.9057 9.28177 22.7337 7.07182C25.3888 5 28.0597 2.94199 30.6991 0.84254C32.0974 -0.262433 33.6371 -0.303869 35.0353 0.787292C38.3346 3.35635 41.681 5.89779 44.9803 8.46685C48.3425 11.0774 51.6889 13.7155 55.051 16.326C58.2404 18.7983 61.4454 21.2707 64.6504 23.7293C65.6402 24.489 66.0801 25.5801 65.6873 26.5608C65.2631 27.6243 64.3362 28.163 62.8908 28.163C60.6756 28.163 58.4446 28.1906 56.2294 28.1492C55.4124 28.1354 55.161 28.384 55.2239 29.0608C55.271 29.6823 55.2239 30.3039 55.2396 30.9254C55.2553 31.4227 55.0196 31.6022 54.454 31.616C51.8774 31.6851 49.3637 32.0442 46.8971 32.6519C42.4038 33.7569 38.4603 35.7044 35.0039 38.4392C31.1233 41.5055 28.3111 45.2348 26.63 49.5718C25.5302 52.4033 24.9646 55.3177 25.0275 58.3011C25.1374 64.1575 27.1799 69.4337 31.2019 74.116C33.04 76.2431 35.2239 78.0249 37.6119 79.6409C37.7533 79.7376 37.879 79.8619 38.0047 79.9724C29.5208 80 21.0526 80 12.5844 80Z" fill="url(#paint0_linear_4_915)"/>
<path d="M52.4116 80C51.0605 79.7238 49.6936 79.6133 48.3582 79.268C44.2576 78.2182 40.6441 76.4088 37.6433 73.7707C33.3071 69.9724 30.8091 65.3729 30.2906 59.9862C29.9136 56.105 30.6363 52.3757 32.5216 48.8674C34.7682 44.6685 38.2404 41.395 42.8279 39.0608C46.5357 37.1823 50.5577 36.2155 54.7839 36.2017C62.0267 36.174 68.2482 38.4669 73.26 43.1216C76.9835 46.5746 79.183 50.6906 79.8743 55.4282C79.89 55.5801 79.9685 55.7321 80.0157 55.8978C80.0157 57.4171 80.0157 58.9365 80.0157 60.442C79.9685 60.5939 79.89 60.7459 79.8743 60.8978C79.7014 62.5553 79.2301 64.1713 78.5388 65.7044C75.161 73.1906 68.9709 77.8453 60.0471 79.6685C59.293 79.8204 58.5074 79.9033 57.7376 80.0138C55.9623 80 54.1869 80 52.4116 80ZM52.8672 62.8591C52.8672 64.1713 52.8829 65.4834 52.8672 66.7818C52.8672 67.5553 52.6001 67.721 51.7517 67.5C50.7934 67.2376 49.945 66.7956 49.0809 66.3536C48.044 65.8287 46.8185 66.105 46.2058 66.989C45.6402 67.8039 45.9544 69.0193 46.8971 69.558C48.2639 70.3315 49.6936 70.9807 51.3275 71.2431C52.8672 71.4917 52.8515 71.547 52.8829 72.9006C52.9143 74.0608 53.5899 74.7376 54.7839 74.779C56.1194 74.8343 56.9835 74.1713 57.0934 73.0111C57.1249 72.6657 57.1249 72.3204 57.1092 71.9751C57.0777 71.4917 57.2977 71.2155 57.8476 71.0773C60.7698 70.2762 62.6865 68.5221 63.7863 66.0635C65.1531 62.9558 64.2262 59.1298 60.6441 57.1547C59.7643 56.6713 58.8531 56.3122 57.879 56.0359C57.4391 55.9116 57.1406 55.7321 57.1406 55.2762C57.1406 53.2321 57.1406 51.1878 57.1406 49.1437C57.1406 48.6326 57.4234 48.5635 57.8947 48.7431C58.3346 48.9088 58.6645 49.1989 59.0573 49.4475C59.8114 49.9309 60.8012 49.9586 61.5553 49.5304C62.2466 49.1437 62.6237 48.3564 62.4352 47.6105C62.278 46.9475 61.7753 46.4779 61.1626 46.0912C60.4399 45.6354 59.6543 45.1934 58.7902 45.0414C57.5176 44.8204 56.9678 44.337 57.062 43.1216C57.1249 42.1685 55.9465 41.395 54.8782 41.4503C53.7627 41.5055 52.9615 42.2376 52.9143 43.2597C52.8986 43.5635 52.8986 43.8536 52.9143 44.1575C52.9301 44.5856 52.7415 44.8204 52.2545 44.9724C49.7722 45.7044 48.1068 47.1823 47.1327 49.3094C45.9544 51.8923 46.8971 55.0138 49.4579 56.6437C50.3063 57.1823 51.1861 57.6796 52.1602 58.0249C52.7101 58.2182 52.9143 58.5221 52.8986 59.0332C52.8515 60.2762 52.8672 61.5746 52.8672 62.8591Z" fill="url(#paint1_linear_4_915)"/>
<path d="M57.0935 63.4807C57.0935 62.5 57.1092 61.5055 57.0935 60.5248C57.0778 59.9309 57.3763 59.8619 57.9104 60.0967C59.3244 60.7044 60 61.7541 60.0471 63.0801C60.11 64.6547 59.3401 65.9116 57.9262 66.8785C57.7533 67.0028 57.5334 67.1547 57.282 67.0718C57.0149 66.9751 57.0935 66.7127 57.0935 66.5193C57.0935 65.4972 57.0935 64.4889 57.0935 63.4807Z" fill="url(#paint2_linear_4_915)"/>
<path d="M52.8672 51.4503C52.8672 52.0856 52.8672 52.7348 52.8672 53.3702C52.8672 53.8812 52.6316 53.9641 52.1445 53.6878C50.7777 52.9282 50.542 50.9254 51.6889 49.6685C51.7989 49.5442 51.9246 49.4199 52.066 49.3232C52.2388 49.1851 52.3959 48.9779 52.6473 49.047C52.9144 49.1298 52.8672 49.3785 52.8672 49.5856C52.8672 50.221 52.8672 50.8425 52.8672 51.4503Z" fill="url(#paint3_linear_4_915)"/>
</g>
<defs>
<linearGradient id="paint0_linear_4_915" x1="0.0169678" y1="40.0024" x2="80.0157" y2="40.0024" gradientUnits="userSpaceOnUse">
<stop stop-color="#FCEABB"/>
<stop offset="1" stop-color="#F8B500"/>
</linearGradient>
<linearGradient id="paint1_linear_4_915" x1="0.0169678" y1="40.0024" x2="80.0157" y2="40.0024" gradientUnits="userSpaceOnUse">
<stop stop-color="#FCEABB"/>
<stop offset="1" stop-color="#F8B500"/>
</linearGradient>
<linearGradient id="paint2_linear_4_915" x1="0.0169678" y1="40.0024" x2="80.0157" y2="40.0024" gradientUnits="userSpaceOnUse">
<stop stop-color="#FCEABB"/>
<stop offset="1" stop-color="#F8B500"/>
</linearGradient>
<linearGradient id="paint3_linear_4_915" x1="0.0169678" y1="40.0024" x2="80.0157" y2="40.0024" gradientUnits="userSpaceOnUse">
<stop stop-color="#FCEABB"/>
<stop offset="1" stop-color="#F8B500"/>
</linearGradient>
<clipPath id="clip0_4_915">
<rect width="80" height="80" fill="white"/>
</clipPath>
</defs>
</svg>
