<svg width="206" height="80" viewBox="0 0 206 80" fill="none" xmlns="http://www.w3.org/2000/svg">
<g clip-path="url(#clip0_4_1086)">
<path d="M24.4973 56.8078C19.9195 56.8078 15.7995 55.8115 12.1373 53.8188C8.47503 51.7723 5.59373 48.7294 3.49333 44.6902C1.39294 40.5971 0.342745 35.5346 0.342745 29.5027C0.342745 23.6863 1.41987 18.7315 3.57412 14.6384C5.78222 10.4915 8.95974 7.34091 13.1067 5.18666C17.2536 2.97856 22.2084 1.87451 27.971 1.87451C34.5414 1.87451 39.7924 3.03241 43.7239 5.34823C47.7093 7.66405 50.7522 11.3801 52.8526 16.4965L35.3224 22.7976C34.9454 20.2664 34.1106 18.5161 32.818 17.5467C31.5793 16.5234 30.0175 16.0118 28.1326 16.0118C26.086 16.0118 24.4165 16.4965 23.1239 17.4659C21.8852 18.4353 20.9697 19.9163 20.3773 21.909C19.8387 23.8478 19.5694 26.3252 19.5694 29.3412C19.5694 32.6803 19.9195 35.3731 20.6196 37.4196C21.3736 39.4661 22.4776 40.9472 23.9318 41.8627C25.4397 42.7244 27.3247 43.1553 29.5867 43.1553C30.6638 43.1553 31.6332 43.0476 32.4949 42.8322C33.4105 42.6167 34.1914 42.2936 34.8377 41.8627C35.5378 41.378 36.0494 40.7856 36.3726 40.0855C36.7495 39.3854 36.938 38.5506 36.938 37.5812V37.5004H27.971V25.9482H52.691V56H40.2502L38.7153 41.7012L41.6235 44.8518C40.708 48.6756 38.7961 51.6376 35.8878 53.738C33.0335 55.7846 29.2366 56.8078 24.4973 56.8078ZM108.81 2.68235C113.603 2.68235 117.67 3.40941 121.009 4.86353C124.348 6.31764 126.879 8.44496 128.602 11.2455C130.326 14.046 131.187 17.4659 131.187 21.5051C131.187 25.5443 130.326 28.9642 128.602 31.7647C126.879 34.5652 124.348 36.6925 121.009 38.1467C117.67 39.6008 113.603 40.3278 108.81 40.3278H99.3584V56H80.5357V2.68235H108.81ZM105.74 26.9984C107.787 26.9984 109.403 26.5676 110.587 25.7059C111.772 24.7903 112.365 23.3901 112.365 21.5051C112.365 19.6201 111.772 18.2468 110.587 17.3851C109.403 16.4695 107.787 16.0118 105.74 16.0118H99.3584V26.9984H105.74ZM181.117 1.87451C186.233 1.87451 190.811 2.52078 194.85 3.81333C198.943 5.05202 202.551 6.93699 205.675 9.46823L198.081 21.5859C195.55 19.8086 192.884 18.3814 190.084 17.3043C187.337 16.2272 184.348 15.6886 181.117 15.6886C179.716 15.6886 178.585 15.7963 177.724 16.0118C176.916 16.2272 176.323 16.5234 175.946 16.9004C175.623 17.2774 175.462 17.7082 175.462 18.1929C175.462 18.8392 175.946 19.3239 176.916 19.6471C177.939 19.9702 179.205 20.3203 180.713 20.6973L188.064 22.3937C193.504 23.6324 197.597 25.4635 200.343 27.8871C203.144 30.3106 204.544 33.6766 204.544 37.9851C204.544 42.2936 203.494 45.8481 201.393 48.6486C199.293 51.3953 196.439 53.4418 192.83 54.7882C189.276 56.1346 185.237 56.8078 180.713 56.8078C177.32 56.8078 173.927 56.5116 170.534 55.9192C167.141 55.2729 163.99 54.3574 161.082 53.1725C158.174 51.9339 155.67 50.4528 153.569 48.7294L161.001 36.3694C162.563 37.6081 164.448 38.7391 166.656 39.7624C168.864 40.7318 171.153 41.5127 173.523 42.1051C175.893 42.6975 178.101 42.9937 180.147 42.9937C181.44 42.9937 182.463 42.886 183.217 42.6706C183.971 42.4552 184.483 42.1859 184.752 41.8627C185.075 41.4858 185.237 41.0549 185.237 40.5702C185.237 39.8162 184.913 39.2507 184.267 38.8737C183.675 38.4967 182.571 38.1197 180.955 37.7427L172.877 35.9655C170.022 35.3192 167.302 34.4575 164.717 33.3804C162.132 32.3033 160.032 30.7414 158.416 28.6949C156.801 26.5945 155.993 23.7671 155.993 20.2125C155.993 16.5503 156.962 13.3459 158.901 10.5992C160.894 7.85254 163.748 5.72522 167.464 4.21725C171.234 2.65542 175.785 1.87451 181.117 1.87451Z" fill="url(#paint0_linear_4_1086)"/>
<path d="M5.28008 75.9488C4.52179 75.9488 3.84535 75.7808 3.25078 75.4447C2.66482 75.1087 2.20812 74.6132 1.88068 73.9583C1.55323 73.3034 1.38951 72.5063 1.38951 71.5671C1.38951 70.6451 1.56185 69.8566 1.90653 69.2017C2.25121 68.5468 2.74238 68.0427 3.38003 67.6894C4.02631 67.3361 4.7846 67.1595 5.65492 67.1595C6.62002 67.1595 7.39986 67.3361 7.99443 67.6894C8.58901 68.0341 9.05002 68.5856 9.37746 69.3439L7.32231 70.1582C7.21029 69.7187 7.0121 69.3999 6.72774 69.2017C6.44338 69.0035 6.09008 68.9044 5.66785 68.9044C5.24561 68.9044 4.8837 69.0078 4.5821 69.2147C4.28051 69.4128 4.05216 69.7101 3.89705 70.1065C3.74195 70.4943 3.66439 70.9768 3.66439 71.5542C3.66439 72.1574 3.74195 72.6615 3.89705 73.0665C4.06078 73.4714 4.29774 73.773 4.60796 73.9712C4.92678 74.1608 5.31886 74.2556 5.78418 74.2556C6.03407 74.2556 6.26242 74.2254 6.46923 74.1651C6.67603 74.1048 6.85699 74.0186 7.0121 73.9066C7.1672 73.786 7.28784 73.6395 7.37401 73.4671C7.46018 73.2862 7.50327 73.0751 7.50327 72.8338V72.7045H5.55152V71.2181H9.39039V75.8196H7.87811L7.71007 73.8161L8.07199 74.1263C7.89103 74.7123 7.56358 75.1647 7.08965 75.4835C6.62433 75.7937 6.02114 75.9488 5.28008 75.9488ZM14.9181 67.1595C15.7798 67.1595 16.5208 67.3361 17.1412 67.6894C17.7703 68.0341 18.2528 68.5339 18.5889 69.1888C18.925 69.8437 19.093 70.6321 19.093 71.5542C19.093 72.4762 18.925 73.2646 18.5889 73.9195C18.2528 74.5744 17.7703 75.0785 17.1412 75.4318C16.5208 75.7765 15.7798 75.9488 14.9181 75.9488C14.0564 75.9488 13.311 75.7765 12.6819 75.4318C12.0529 75.0785 11.5704 74.5744 11.2343 73.9195C10.8982 73.2646 10.7302 72.4762 10.7302 71.5542C10.7302 70.6321 10.8982 69.8437 11.2343 69.1888C11.5704 68.5339 12.0529 68.0341 12.6819 67.6894C13.311 67.3361 14.0564 67.1595 14.9181 67.1595ZM14.9181 68.9044C14.5044 68.9044 14.1555 69.0035 13.8711 69.2017C13.5867 69.3999 13.3713 69.6972 13.2248 70.0936C13.0783 70.4814 13.0051 70.9682 13.0051 71.5542C13.0051 72.1315 13.0783 72.6184 13.2248 73.0147C13.3713 73.4111 13.5867 73.7084 13.8711 73.9066C14.1555 74.1048 14.5044 74.2039 14.9181 74.2039C15.3317 74.2039 15.6763 74.1048 15.9521 73.9066C16.2365 73.7084 16.4519 73.4111 16.5984 73.0147C16.7449 72.6184 16.8181 72.1315 16.8181 71.5542C16.8181 70.9682 16.7449 70.4814 16.5984 70.0936C16.4519 69.6972 16.2365 69.3999 15.9521 69.2017C15.6763 69.0035 15.3317 68.9044 14.9181 68.9044ZM22.8453 74.1005H27.1237V75.8196H20.6221V67.2888H22.8453V74.1005ZM32.0168 67.2888C33.3524 67.2888 34.3735 67.6593 35.0801 68.4003C35.7953 69.1414 36.1529 70.1927 36.1529 71.5542C36.1529 72.9157 35.7953 73.9669 35.0801 74.708C34.3735 75.449 33.3524 75.8196 32.0168 75.8196H28.3976V67.2888H32.0168ZM31.797 74.1393C32.5209 74.1393 33.0465 73.9238 33.3739 73.493C33.71 73.0535 33.878 72.4073 33.878 71.5542C33.878 70.7011 33.71 70.0591 33.3739 69.6283C33.0465 69.1888 32.5209 68.9691 31.797 68.9691H30.6208V74.1393H31.797ZM37.6752 75.8196V67.2888H44.3189V69.0078H39.8984V70.7399H43.4141V72.3555H39.8984V74.1005H44.4869V75.8196H37.6752ZM53.52 67.2888V75.8196H51.0513L48.4015 71.2052L47.7553 69.9385H47.7423L47.794 71.5154V75.8196H45.8294V67.2888H48.2981L50.9479 71.9032L51.5941 73.1699H51.6071L51.5554 71.5929V67.2888H53.52ZM63.0247 67.2888C63.7227 67.2888 64.3173 67.4008 64.8084 67.6248C65.2996 67.8489 65.6744 68.172 65.9329 68.5942C66.1915 69.0165 66.3207 69.5292 66.3207 70.1324C66.3207 70.7356 66.1915 71.2483 65.9329 71.6705C65.6744 72.0927 65.2996 72.4159 64.8084 72.6399C64.3173 72.864 63.7227 72.976 63.0247 72.976H61.3315V75.8196H59.1083V67.2888H63.0247ZM62.6757 71.3086C63.141 71.3086 63.49 71.2138 63.7227 71.0242C63.964 70.826 64.0846 70.5287 64.0846 70.1324C64.0846 69.736 63.964 69.443 63.7227 69.2534C63.49 69.0552 63.141 68.9561 62.6757 68.9561H61.3315V71.3086H62.6757ZM71.8136 67.2888C72.8304 67.2888 73.6189 67.53 74.179 68.0126C74.7477 68.4865 75.0321 69.1199 75.0321 69.9126C75.0321 70.7829 74.752 71.4465 74.1919 71.9032C73.6318 72.3599 72.8434 72.5882 71.8266 72.5882L71.6198 72.7045H69.9265V75.8196H67.7421V67.2888H71.8136ZM71.5034 71.1276C71.9343 71.1276 72.2574 71.0415 72.4728 70.8691C72.6883 70.6968 72.796 70.421 72.796 70.0419C72.796 69.6714 72.6883 69.3999 72.4728 69.2276C72.2574 69.0552 71.9343 68.9691 71.5034 68.9691H69.9265V71.1276H71.5034ZM72.8089 71.5929L75.5362 75.8196H73.0803L70.8959 72.0841L72.8089 71.5929ZM80.3912 67.1595C81.2529 67.1595 81.994 67.3361 82.6144 67.6894C83.2434 68.0341 83.726 68.5339 84.0621 69.1888C84.3981 69.8437 84.5662 70.6321 84.5662 71.5542C84.5662 72.4762 84.3981 73.2646 84.0621 73.9195C83.726 74.5744 83.2434 75.0785 82.6144 75.4318C81.994 75.7765 81.2529 75.9488 80.3912 75.9488C79.5295 75.9488 78.7841 75.7765 78.1551 75.4318C77.5261 75.0785 77.0435 74.5744 76.7075 73.9195C76.3714 73.2646 76.2034 72.4762 76.2034 71.5542C76.2034 70.6321 76.3714 69.8437 76.7075 69.1888C77.0435 68.5339 77.5261 68.0341 78.1551 67.6894C78.7841 67.3361 79.5295 67.1595 80.3912 67.1595ZM80.3912 68.9044C79.9776 68.9044 79.6286 69.0035 79.3443 69.2017C79.0599 69.3999 78.8445 69.6972 78.698 70.0936C78.5515 70.4814 78.4782 70.9682 78.4782 71.5542C78.4782 72.1315 78.5515 72.6184 78.698 73.0147C78.8445 73.4111 79.0599 73.7084 79.3443 73.9066C79.6286 74.1048 79.9776 74.2039 80.3912 74.2039C80.8048 74.2039 81.1495 74.1048 81.4253 73.9066C81.7096 73.7084 81.925 73.4111 82.0715 73.0147C82.218 72.6184 82.2913 72.1315 82.2913 71.5542C82.2913 70.9682 82.218 70.4814 82.0715 70.0936C81.925 69.6972 81.7096 69.3999 81.4253 69.2017C81.1495 69.0035 80.8048 68.9044 80.3912 68.9044ZM90.0117 67.2888C90.7097 67.2888 91.3043 67.4008 91.7954 67.6248C92.2866 67.8489 92.6614 68.172 92.92 68.5942C93.1785 69.0165 93.3077 69.5292 93.3077 70.1324C93.3077 70.7356 93.1785 71.2483 92.92 71.6705C92.6614 72.0927 92.2866 72.4159 91.7954 72.6399C91.3043 72.864 90.7097 72.976 90.0117 72.976H88.3185V75.8196H86.0953V67.2888H90.0117ZM89.6627 71.3086C90.128 71.3086 90.477 71.2138 90.7097 71.0242C90.951 70.826 91.0716 70.5287 91.0716 70.1324C91.0716 69.736 90.951 69.443 90.7097 69.2534C90.477 69.0552 90.128 68.9561 89.6627 68.9561H88.3185V71.3086H89.6627ZM94.7291 75.8196V67.2888H101.373V69.0078H96.9523V70.7399H100.468V72.3555H96.9523V74.1005H101.541V75.8196H94.7291ZM106.955 67.2888C107.972 67.2888 108.76 67.53 109.32 68.0126C109.889 68.4865 110.173 69.1199 110.173 69.9126C110.173 70.7829 109.893 71.4465 109.333 71.9032C108.773 72.3599 107.985 72.5882 106.968 72.5882L106.761 72.7045H105.068V75.8196H102.883V67.2888H106.955ZM106.645 71.1276C107.075 71.1276 107.399 71.0415 107.614 70.8691C107.829 70.6968 107.937 70.421 107.937 70.0419C107.937 69.6714 107.829 69.3999 107.614 69.2276C107.399 69.0552 107.075 68.9691 106.645 68.9691H105.068V71.1276H106.645ZM107.95 71.5929L110.677 75.8196H108.222L106.037 72.0841L107.95 71.5929ZM118.867 67.2888V69.0078H116.088V75.8196H113.865V69.0078H111.073V67.2888H118.867ZM127.33 67.2888L124.319 72.7045V75.8196H122.096V72.7045L119.084 67.2888H121.385L122.587 69.6283L123.22 71.0501L123.866 69.6283L125.068 67.2888H127.33ZM135.073 67.1595C135.866 67.1595 136.564 67.2844 137.167 67.5343C137.779 67.7756 138.309 68.1332 138.757 68.6072L137.684 70.0419C137.314 69.6541 136.913 69.3655 136.482 69.1759C136.06 68.9777 135.577 68.8786 135.034 68.8786C134.716 68.8786 134.457 68.9131 134.259 68.982C134.061 69.0509 133.919 69.1457 133.832 69.2664C133.746 69.387 133.703 69.5249 133.703 69.68C133.703 69.8609 133.785 70.016 133.949 70.1453C134.121 70.2659 134.397 70.3693 134.776 70.4555L136.211 70.7786C137.064 70.9768 137.688 71.2655 138.085 71.6446C138.481 72.0238 138.679 72.5279 138.679 73.1569C138.679 73.7601 138.524 74.2728 138.214 74.6951C137.904 75.1087 137.477 75.4232 136.934 75.6386C136.392 75.8454 135.771 75.9488 135.073 75.9488C134.504 75.9488 133.962 75.8885 133.445 75.7679C132.928 75.6386 132.462 75.4577 132.049 75.225C131.635 74.9923 131.286 74.7252 131.002 74.4236L132.074 72.9372C132.29 73.1871 132.553 73.4111 132.863 73.6093C133.182 73.7989 133.526 73.9497 133.897 74.0617C134.276 74.1737 134.66 74.2297 135.047 74.2297C135.349 74.2297 135.599 74.1996 135.797 74.1393C136.004 74.0789 136.155 73.9885 136.249 73.8678C136.344 73.7472 136.392 73.605 136.392 73.4413C136.392 73.2603 136.327 73.1095 136.198 72.9889C136.068 72.8596 135.823 72.7519 135.461 72.6658L133.884 72.3168C133.402 72.2048 132.971 72.0583 132.592 71.8773C132.221 71.6877 131.928 71.4378 131.713 71.1276C131.497 70.8088 131.389 70.4124 131.389 69.9385C131.389 69.4042 131.536 68.9303 131.829 68.5167C132.122 68.0944 132.544 67.7627 133.096 67.5214C133.647 67.2801 134.306 67.1595 135.073 67.1595ZM143.895 67.1595C144.757 67.1595 145.498 67.3361 146.118 67.6894C146.747 68.0341 147.23 68.5339 147.566 69.1888C147.902 69.8437 148.07 70.6321 148.07 71.5542C148.07 72.4762 147.902 73.2646 147.566 73.9195C147.23 74.5744 146.747 75.0785 146.118 75.4318C145.498 75.7765 144.757 75.9488 143.895 75.9488C143.034 75.9488 142.288 75.7765 141.659 75.4318C141.03 75.0785 140.548 74.5744 140.212 73.9195C139.875 73.2646 139.707 72.4762 139.707 71.5542C139.707 70.6321 139.875 69.8437 140.212 69.1888C140.548 68.5339 141.03 68.0341 141.659 67.6894C142.288 67.3361 143.034 67.1595 143.895 67.1595ZM143.895 68.9044C143.482 68.9044 143.133 69.0035 142.848 69.2017C142.564 69.3999 142.349 69.6972 142.202 70.0936C142.056 70.4814 141.982 70.9682 141.982 71.5542C141.982 72.1315 142.056 72.6184 142.202 73.0147C142.349 73.4111 142.564 73.7084 142.848 73.9066C143.133 74.1048 143.482 74.2039 143.895 74.2039C144.309 74.2039 144.654 74.1048 144.929 73.9066C145.214 73.7084 145.429 73.4111 145.576 73.0147C145.722 72.6184 145.795 72.1315 145.795 71.5542C145.795 70.9682 145.722 70.4814 145.576 70.0936C145.429 69.6972 145.214 69.3999 144.929 69.2017C144.654 69.0035 144.309 68.9044 143.895 68.9044ZM157.057 67.2888V72.3426C157.057 73.549 156.734 74.4538 156.088 75.057C155.45 75.6515 154.502 75.9488 153.244 75.9488C151.995 75.9488 151.047 75.6515 150.401 75.057C149.754 74.4538 149.431 73.549 149.431 72.3426V67.2888H151.667V72.3814C151.667 72.9932 151.797 73.4499 152.055 73.7515C152.322 74.0531 152.719 74.2039 153.244 74.2039C153.779 74.2039 154.175 74.0531 154.433 73.7515C154.701 73.4499 154.834 72.9932 154.834 72.3814V67.2888H157.057ZM160.999 74.1005H165.277V75.8196H158.776V67.2888H160.999V74.1005ZM173.934 67.2888V72.3426C173.934 73.549 173.611 74.4538 172.964 75.057C172.327 75.6515 171.379 75.9488 170.121 75.9488C168.871 75.9488 167.923 75.6515 167.277 75.057C166.631 74.4538 166.308 73.549 166.308 72.3426V67.2888H168.544V72.3814C168.544 72.9932 168.673 73.4499 168.932 73.7515C169.199 74.0531 169.595 74.2039 170.121 74.2039C170.655 74.2039 171.051 74.0531 171.31 73.7515C171.577 73.4499 171.711 72.9932 171.711 72.3814V67.2888H173.934ZM182.826 67.2888V69.0078H180.047V75.8196H177.824V69.0078H175.032V67.2888H182.826ZM186.32 67.2888V75.8196H184.097V67.2888H186.32ZM192.038 67.1595C192.899 67.1595 193.64 67.3361 194.261 67.6894C194.89 68.0341 195.372 68.5339 195.709 69.1888C196.045 69.8437 196.213 70.6321 196.213 71.5542C196.213 72.4762 196.045 73.2646 195.709 73.9195C195.372 74.5744 194.89 75.0785 194.261 75.4318C193.64 75.7765 192.899 75.9488 192.038 75.9488C191.176 75.9488 190.431 75.7765 189.802 75.4318C189.173 75.0785 188.69 74.5744 188.354 73.9195C188.018 73.2646 187.85 72.4762 187.85 71.5542C187.85 70.6321 188.018 69.8437 188.354 69.1888C188.69 68.5339 189.173 68.0341 189.802 67.6894C190.431 67.3361 191.176 67.1595 192.038 67.1595ZM192.038 68.9044C191.624 68.9044 191.275 69.0035 190.991 69.2017C190.706 69.3999 190.491 69.6972 190.344 70.0936C190.198 70.4814 190.125 70.9682 190.125 71.5542C190.125 72.1315 190.198 72.6184 190.344 73.0147C190.491 73.4111 190.706 73.7084 190.991 73.9066C191.275 74.1048 191.624 74.2039 192.038 74.2039C192.451 74.2039 192.796 74.1048 193.072 73.9066C193.356 73.7084 193.571 73.4111 193.718 73.0147C193.864 72.6184 193.938 72.1315 193.938 71.5542C193.938 70.9682 193.864 70.4814 193.718 70.0936C193.571 69.6972 193.356 69.3999 193.072 69.2017C192.796 69.0035 192.451 68.9044 192.038 68.9044ZM205.432 67.2888V75.8196H202.964L200.314 71.2052L199.668 69.9385H199.655L199.706 71.5154V75.8196H197.742V67.2888H200.211L202.86 71.9032L203.507 73.1699H203.519L203.468 71.5929V67.2888H205.432Z" fill="#24173D"/>
</g>
<defs>
<linearGradient id="paint0_linear_4_1086" x1="-2" y1="28.5" x2="207" y2="28.5" gradientUnits="userSpaceOnUse">
<stop stop-color="#2A2D3E"/>
<stop offset="1" stop-color="#FFC633"/>
</linearGradient>
<clipPath id="clip0_4_1086">
<rect width="206" height="80" fill="white"/>
</clipPath>
</defs>
</svg>
