<svg width="30" height="30" viewBox="0 0 30 30" fill="none" xmlns="http://www.w3.org/2000/svg">
<path d="M23.0539 29.9996C16.942 29.9917 11.0828 27.5554 6.76108 23.2251C2.43935 18.8948 0.00792203 13.0239 0 6.89995C0 5.06998 0.725511 3.31497 2.01693 2.02098C3.30835 0.727001 5.05989 4.93694e-05 6.88623 4.93694e-05C7.27296 -0.00290229 7.65905 0.0322664 8.03892 0.105048C8.40615 0.159498 8.76716 0.24993 9.11677 0.375044C9.36265 0.461487 9.58175 0.61074 9.75241 0.808046C9.92307 1.00535 10.0394 1.24387 10.0898 1.50003L12.1407 10.4999C12.196 10.7442 12.1893 10.9985 12.1214 11.2395C12.0534 11.4806 11.9262 11.7007 11.7515 11.8799C11.5569 12.0899 11.5419 12.1049 9.7006 13.0649C11.1751 16.3061 13.7623 18.909 16.991 20.3998C17.9641 18.5398 17.979 18.5248 18.1886 18.3298C18.3674 18.1547 18.5871 18.0273 18.8277 17.9592C19.0683 17.8911 19.3221 17.8844 19.5659 17.9398L28.5479 19.9948C28.7954 20.0523 29.0241 20.172 29.2127 20.3425C29.4013 20.5131 29.5434 20.7289 29.6257 20.9697C29.7521 21.3258 29.8473 21.6922 29.9102 22.0647C29.9704 22.4417 30.0005 22.8229 30 23.2047C29.9724 25.0269 29.2265 26.7641 27.9251 28.0371C26.6237 29.3102 24.8726 30.0157 23.0539 29.9996Z" fill="#24173D"/>
</svg>
